<svg width="16" height="16" viewBox="0 0 16 16" fill="none" xmlns="http://www.w3.org/2000/svg">
<path d="M8.00261 0.00219727C4.66269 0.00219727 3.68588 0.00564277 3.49601 0.0213937C2.8106 0.0783676 2.3841 0.186286 1.91945 0.417627C1.56136 0.59544 1.27895 0.801555 1.00024 1.09048C0.492639 1.6174 0.185005 2.26565 0.0736409 3.03621C0.0194972 3.4103 0.0037463 3.48659 0.000546906 5.39737C-0.000683632 6.03429 0.000546906 6.87254 0.000546906 7.99688C0.000546906 11.3341 0.00423852 12.3099 0.0202355 12.4994C0.0756097 13.1664 0.180205 13.586 0.401702 14.045C0.825007 14.9236 1.63347 15.5831 2.58591 15.8293C2.91569 15.9142 3.27993 15.9609 3.74753 15.9831C3.94565 15.9917 5.96496 15.9978 7.98551 15.9978C10.0061 15.9978 12.0266 15.9954 12.2198 15.9855C12.7612 15.9601 13.0756 15.9179 13.4233 15.828C13.8955 15.7069 14.3356 15.4842 14.7129 15.1754C15.0902 14.8665 15.3954 14.4791 15.6075 14.0401C15.8246 13.5921 15.9348 13.1565 15.9846 12.5244C15.9954 12.3866 16 10.1892 16 7.99479C16 5.8 15.9951 3.60669 15.9843 3.46887C15.9338 2.82653 15.8237 2.39461 15.5995 1.93808C15.4155 1.56437 15.2112 1.28528 14.9147 0.999917C14.3855 0.494412 13.7383 0.186778 12.9668 0.0755373C12.5931 0.0215167 12.5187 0.00551972 10.6064 0.00219727H8.00261Z" fill="url(#paint0_radial_219_230)"/>
<path d="M8.00261 0.00219727C4.66269 0.00219727 3.68588 0.00564277 3.49601 0.0213937C2.8106 0.0783676 2.3841 0.186286 1.91945 0.417627C1.56136 0.59544 1.27895 0.801555 1.00024 1.09048C0.492639 1.6174 0.185005 2.26565 0.0736409 3.03621C0.0194972 3.4103 0.0037463 3.48659 0.000546906 5.39737C-0.000683632 6.03429 0.000546906 6.87254 0.000546906 7.99688C0.000546906 11.3341 0.00423852 12.3099 0.0202355 12.4994C0.0756097 13.1664 0.180205 13.586 0.401702 14.045C0.825007 14.9236 1.63347 15.5831 2.58591 15.8293C2.91569 15.9142 3.27993 15.9609 3.74753 15.9831C3.94565 15.9917 5.96496 15.9978 7.98551 15.9978C10.0061 15.9978 12.0266 15.9954 12.2198 15.9855C12.7612 15.9601 13.0756 15.9179 13.4233 15.828C13.8955 15.7069 14.3356 15.4842 14.7129 15.1754C15.0902 14.8665 15.3954 14.4791 15.6075 14.0401C15.8246 13.5921 15.9348 13.1565 15.9846 12.5244C15.9954 12.3866 16 10.1892 16 7.99479C16 5.8 15.9951 3.60669 15.9843 3.46887C15.9338 2.82653 15.8237 2.39461 15.5995 1.93808C15.4155 1.56437 15.2112 1.28528 14.9147 0.999917C14.3855 0.494412 13.7383 0.186778 12.9668 0.0755373C12.5931 0.0215167 12.5187 0.00551972 10.6064 0.00219727H8.00261Z" fill="url(#paint1_radial_219_230)"/>
<path d="M7.99875 2.09399C6.39462 2.09399 6.1933 2.10101 5.56327 2.12968C4.93446 2.15847 4.50525 2.25802 4.12969 2.40409C3.74121 2.55495 3.41167 2.75676 3.08336 3.08519C2.75481 3.4135 2.553 3.74304 2.40165 4.1314C2.25521 4.50708 2.15554 4.93641 2.12724 5.56497C2.09918 6.19501 2.0918 6.39645 2.0918 8.00058C2.0918 9.60471 2.09893 9.80541 2.12748 10.4354C2.1564 11.0642 2.25595 11.4935 2.40189 11.869C2.55288 12.2575 2.75469 12.587 3.08312 12.9153C3.4113 13.2439 3.74084 13.4462 4.12908 13.5971C4.50488 13.7431 4.93422 13.8427 5.5629 13.8715C6.19293 13.9001 6.39413 13.9072 7.99813 13.9072C9.60238 13.9072 9.80308 13.9001 10.4331 13.8715C11.0619 13.8427 11.4916 13.7431 11.8674 13.5971C12.2558 13.4462 12.5848 13.2439 12.913 12.9153C13.2416 12.587 13.4434 12.2575 13.5947 11.8691C13.7399 11.4935 13.8396 11.0641 13.8692 10.4356C13.8975 9.80553 13.9048 9.60471 13.9048 8.00058C13.9048 6.39645 13.8975 6.19513 13.8692 5.5651C13.8396 4.93629 13.7399 4.50708 13.5947 4.13152C13.4434 3.74304 13.2416 3.4135 12.913 3.08519C12.5845 2.75664 12.2559 2.55483 11.8671 2.40409C11.4905 2.25802 11.0611 2.15847 10.4323 2.12968C9.80222 2.10101 9.60165 2.09399 7.99702 2.09399H7.99875ZM7.46888 3.15841C7.62614 3.15816 7.80162 3.15841 7.99875 3.15841C9.5758 3.15841 9.76272 3.16407 10.3855 3.19237C10.9614 3.21871 11.2739 3.31493 11.4822 3.39578C11.7578 3.50284 11.9543 3.63081 12.1609 3.83754C12.3676 4.04427 12.4956 4.24116 12.6029 4.5168C12.6838 4.72476 12.7801 5.03732 12.8063 5.61321C12.8346 6.23586 12.8408 6.4229 12.8408 7.99922C12.8408 9.57554 12.8346 9.76258 12.8063 10.3852C12.78 10.9611 12.6838 11.2737 12.6029 11.4816C12.4959 11.7573 12.3676 11.9536 12.1609 12.1602C11.9542 12.3669 11.7579 12.4949 11.4822 12.6019C11.2742 12.6831 10.9614 12.7791 10.3855 12.8055C9.76285 12.8338 9.5758 12.8399 7.99875 12.8399C6.42157 12.8399 6.23465 12.8338 5.612 12.8055C5.0361 12.7789 4.72355 12.6826 4.51522 12.6018C4.23958 12.4947 4.04269 12.3668 3.83596 12.16C3.62923 11.9533 3.50125 11.7569 3.39395 11.4812C3.31311 11.2732 3.21675 10.9606 3.19054 10.3847C3.16224 9.76209 3.15658 9.57505 3.15658 7.99775C3.15658 6.42044 3.16224 6.23439 3.19054 5.61173C3.21688 5.03584 3.31311 4.72328 3.39395 4.51508C3.50101 4.23944 3.62923 4.04255 3.83596 3.83582C4.04269 3.62909 4.23958 3.50111 4.51522 3.39381C4.72343 3.3126 5.0361 3.21661 5.612 3.19016C6.15688 3.16555 6.36804 3.15816 7.46888 3.15693V3.15841ZM11.1516 4.13915C11.0114 4.13915 10.8744 4.18072 10.7578 4.25862C10.6413 4.33651 10.5504 4.44722 10.4968 4.57675C10.4431 4.70628 10.4291 4.84881 10.4565 4.98631C10.4838 5.1238 10.5514 5.2501 10.6505 5.34922C10.7497 5.44833 10.876 5.51582 11.0135 5.54314C11.151 5.57046 11.2935 5.55639 11.423 5.5027C11.5526 5.44902 11.6632 5.35813 11.7411 5.24154C11.8189 5.12495 11.8605 4.98789 11.8604 4.84769C11.8604 4.45638 11.5429 4.1389 11.1516 4.1389V4.13915ZM7.99875 4.9673C6.32362 4.9673 4.96547 6.32544 4.96547 8.00058C4.96547 9.67571 6.32362 11.0332 7.99875 11.0332C9.67388 11.0332 11.0317 9.67571 11.0317 8.00058C11.0317 6.32544 9.67376 4.9673 7.99862 4.9673H7.99875ZM7.99875 6.03172C9.08605 6.03172 9.96761 6.91315 9.96761 8.00058C9.96761 9.08788 9.08605 9.96944 7.99875 9.96944C6.91132 9.96944 6.02989 9.08788 6.02989 8.00058C6.02989 6.91315 6.91132 6.03172 7.99875 6.03172Z" fill="white"/>
<defs>
<radialGradient id="paint0_radial_219_230" cx="0" cy="0" r="1" gradientUnits="userSpaceOnUse" gradientTransform="translate(4.25002 17.2298) rotate(-90) scale(15.8529 14.7484)">
<stop stop-color="#FFDD55"/>
<stop offset="0.1" stop-color="#FFDD55"/>
<stop offset="0.5" stop-color="#FF543E"/>
<stop offset="1" stop-color="#C837AB"/>
</radialGradient>
<radialGradient id="paint1_radial_219_230" cx="0" cy="0" r="1" gradientUnits="userSpaceOnUse" gradientTransform="translate(-2.68008 1.1545) rotate(78.6776) scale(7.08637 29.2177)">
<stop stop-color="#3771C8"/>
<stop offset="0.128" stop-color="#3771C8"/>
<stop offset="1" stop-color="#6600FF" stop-opacity="0"/>
</radialGradient>
</defs>
</svg>
