<svg width="120" height="38" viewBox="0 0 120 38" fill="none" xmlns="http://www.w3.org/2000/svg">
<path d="M5.64472 20.7181C4.30063 11.9605 10.3195 3.77298 19.0883 2.43061C27.8569 1.08825 36.055 7.09939 37.3991 15.8568L38.955 25.9949C39.4398 29.1533 37.2692 32.1062 34.1066 32.5903L23.9556 34.1443C15.1868 35.4866 6.98881 29.4755 5.64472 20.7181Z" fill="#00AAFF"/>
<path d="M5.12272 12.3719C6.1031 11.8177 7.31655 12.5312 7.30692 13.6563L7.29242 15.35C7.28279 16.4749 6.0573 17.1677 5.08654 16.5968L3.62519 15.7376C2.65444 15.1667 2.66648 13.7603 3.64687 13.2061L5.12272 12.3719Z" fill="#96DCFF"/>
<path d="M18.9298 16.6151C20.514 16.6151 21.7982 16.1021 21.7982 15.4692C21.7982 14.8364 20.514 14.3234 18.9298 14.3234C17.3457 14.3234 16.0615 14.8364 16.0615 15.4692C16.0615 16.1021 17.3457 16.6151 18.9298 16.6151Z" fill="#80D5FF"/>
<path d="M16.2028 13.885C17.4554 13.6933 18.3153 12.5236 18.1233 11.2725C17.9313 10.0215 16.7601 9.16273 15.5074 9.3545C14.2548 9.54626 13.3949 10.7159 13.5869 11.967C13.7789 13.2181 14.9501 14.0768 16.2028 13.885Z" fill="black"/>
<path d="M28.0875 19.6542C24.0819 16.2581 19.81 17.8974 18.1748 19.1415C18.4445 23.6062 20.767 26.1476 21.8945 26.8603C26.8949 30.5735 31.5511 28.1741 32.1349 28.007C32.7185 27.8401 33.0946 23.8992 28.0875 19.6542Z" fill="#006BCE"/>
<path d="M63.5416 19.3216C63.6001 18.6785 63.6587 18.0062 63.6879 17.3046H62.8099C62.0782 17.3046 61.2879 17.3046 60.5855 17.3339C60.1757 18.9708 56.8684 19.7308 53.6782 19.7308C50.4001 19.7308 47.2099 18.9415 47.1513 17.1585C47.1221 16.3985 47.1221 15.6677 47.1221 14.9369C47.1221 12.3939 47.2391 9.90924 47.5904 7.16155C47.7074 6.31386 48.4684 5.96309 49.3172 5.8754C50.2538 5.7877 51.366 5.75847 52.566 5.75847C54.6147 5.75847 56.8684 5.8754 58.566 6.13847C59.7952 6.2554 60.1465 6.81078 60.3513 7.80463C60.3513 7.89232 60.3806 7.98001 60.3806 8.0677C60.8782 8.0677 61.4343 8.03847 61.9904 8.03847C62.5465 8.03847 63.0733 8.0677 63.6001 8.0677L63.5416 6.60617C63.483 5.81694 64.5367 5.34924 65.5611 5.34924C66.4099 5.34924 67.2587 5.67078 67.405 6.46001C67.9904 9.6754 68.2538 13.3 68.2538 16.5446C68.2538 17.5969 68.2245 18.62 68.166 19.5554C68.1367 20.2862 66.9952 20.6662 65.883 20.6662C64.6538 20.6662 63.4538 20.2277 63.5416 19.3216ZM60.644 21.0754C64.6245 21.0754 67.2587 23.9985 67.2587 27.3892C67.3465 30.6631 65.2099 32.6508 60.6733 32.6508C56.2245 32.6508 54.1757 30.7508 54.1757 27.5939C54.1757 23.9692 56.7221 21.0754 60.644 21.0754ZM51.5416 15.2C51.5709 15.9015 52.8294 16.1646 54.0001 16.1646C55.1709 16.1646 56.4587 15.9015 56.4587 15.1416V13.68C56.4587 12.3646 56.4294 11.02 56.283 9.73386C56.2245 9.26617 55.7562 9.17847 55.2879 9.14924C54.4099 9.09078 53.2684 9.14924 52.3318 9.2077C51.805 9.26617 51.6879 9.44155 51.6587 9.76309C51.5416 10.9031 51.5123 12.0723 51.5123 13.2416C51.5123 13.9139 51.5123 14.5569 51.5416 15.2ZM60.7611 24.6416C58.9172 24.6416 58.244 26.0739 58.244 27.3015C58.244 28.5292 59.3562 29.1139 60.6733 29.1139C62.0196 29.1139 63.3074 28.5 63.3074 27.2431C63.3074 25.7231 62.4001 24.6416 60.7611 24.6416ZM63.7172 11.6046H62.8391C62.1074 11.6046 61.3465 11.6046 60.6733 11.6339C60.7026 12.3354 60.7026 13.0369 60.7026 13.7677C61.2001 13.7677 61.6977 13.7385 62.2245 13.7385C62.7513 13.7385 63.2489 13.7677 63.7465 13.7677C63.7465 13.0662 63.7465 12.3354 63.7172 11.6046ZM78.6033 8.85694C83.0814 8.85694 86.0667 12.9785 86.0667 17.6846C86.0667 22.2154 83.7838 25.0508 78.6033 25.0508C73.5692 25.0508 71.257 22.3908 71.257 17.9477C71.257 12.9492 74.1546 8.85694 78.6033 8.85694ZM87.2667 27.1262C87.5887 24.4954 87.6765 20.9292 87.6765 17.3339C87.6765 14.4985 87.618 11.6339 87.5302 9.14924C87.5009 8.36001 88.5546 7.89232 89.5789 7.89232C90.4277 7.89232 91.2472 8.21386 91.3936 9.00309C91.6863 10.8154 91.8911 12.8615 92.0375 15.0246C92.8277 15.0246 93.618 15.0246 94.3789 15.0539C95.0814 15.0831 95.4326 15.9308 95.4326 16.8369C95.4326 17.86 94.9643 18.9708 94.0277 18.9708C93.3838 18.9708 92.7985 18.9708 92.2131 19C92.2131 19.76 92.2424 20.52 92.2424 21.2508C92.2424 23.4723 92.1546 25.5769 92.0375 27.3308C91.9789 28.0323 90.9546 28.3246 89.8716 28.3246C88.5546 28.3246 87.1789 27.8862 87.2667 27.1262ZM78.6911 12.7154C76.3497 12.7154 75.5302 15.4339 75.5302 17.8892C75.5302 20.0815 76.935 21.2508 78.6033 21.2508C80.3009 21.2508 81.9107 19.9646 81.9107 17.6846C81.9107 14.9662 80.7985 12.7154 78.6911 12.7154ZM112.953 27.1262C113.246 24.4369 113.363 20.7539 113.363 17.0708C113.363 14.3231 113.304 11.5462 113.216 9.14924C113.187 8.36001 114.211 7.89232 115.236 7.89232C116.085 7.89232 116.933 8.21386 117.05 9.00309C117.636 12.6569 117.928 17.4215 117.928 21.66C117.928 23.7354 117.87 25.6939 117.724 27.3308C117.665 28.0323 116.611 28.3246 115.529 28.3246C114.241 28.3246 112.865 27.8862 112.953 27.1262ZM110.465 16.8077C110.465 17.7723 110.085 18.6492 108.738 18.6492C106.689 18.6492 104.524 18.6785 102.446 18.7662C101.889 18.7954 101.538 19.1462 101.538 19.76C101.538 20.14 101.538 20.4615 101.597 20.9C101.685 21.6015 102.387 21.6892 103.031 21.7185C103.587 21.7185 104.172 21.7477 104.758 21.7477C106.66 21.7477 108.592 21.66 110.436 21.4846C111.021 21.4262 111.431 22.3031 111.431 23.0923C111.431 23.6185 111.255 24.1446 110.787 24.2615C108.475 24.9046 105.841 25.3139 103.177 25.3139C101.714 25.3139 100.192 25.1969 98.7578 24.9046C97.7626 24.7 97.1773 23.8231 97.0895 22.8585C97.0309 21.8939 97.0017 21.0169 97.0017 20.1108C97.0017 19.2046 97.0309 18.2692 97.0895 17.2169C97.148 16.1646 97.8797 15.58 99.0505 15.5216C100.104 15.4631 101.275 15.4339 102.475 15.4339C103.441 15.4339 104.436 15.4631 105.372 15.4631C105.929 15.4631 106.192 15.2585 106.163 14.6446C106.133 14.2354 106.104 13.68 106.046 13.3C105.987 12.8323 105.636 12.7154 105.109 12.6862C103.88 12.6277 102.592 12.5985 101.333 12.5985C100.25 12.5985 99.1383 12.6277 98.0553 12.6569C97.4407 12.6862 97.0895 11.78 97.0895 10.8739C97.0895 10.0554 97.3529 9.26617 97.9383 9.2077C99.7822 9.03232 101.772 8.94463 103.763 8.94463C105.285 8.94463 106.836 9.00309 108.329 9.09078C109.558 9.17847 109.938 9.88001 110.114 10.9616C110.319 12.1892 110.494 14.7031 110.465 16.8077Z" fill="#006BCE"/>
</svg>
